<mxfile host="app.diagrams.net" modified="2021-10-07T02:35:35.583Z" agent="5.0 (Windows)" etag="IYvGTYYLe689soM9VErk" version="15.4.3" type="github" pages="2">
  <diagram id="HXAhsn8VKcw_VkRaz7bE" name="Page-1">
    <mxGraphModel dx="2687" dy="2133" grid="1" gridSize="10" guides="1" tooltips="1" connect="0" arrows="1" fold="1" page="1" pageScale="1" pageWidth="850" pageHeight="1100" math="0" shadow="0">
      <root>
        <mxCell id="0" />
        <mxCell id="1" parent="0" />
        <mxCell id="nOl9snunENzTfeE-55hJ-9" value="" style="html=1;points=[];perimeter=orthogonalPerimeter;align=center;verticalAlign=top;" vertex="1" parent="1">
          <mxGeometry x="274" y="640" width="10" height="500" as="geometry" />
        </mxCell>
        <mxCell id="nOl9snunENzTfeE-55hJ-12" value="Customer(class)" style="shape=umlLifeline;perimeter=lifelinePerimeter;whiteSpace=wrap;html=1;container=1;collapsible=0;recursiveResize=0;outlineConnect=0;align=center;verticalAlign=top;" vertex="1" parent="1">
          <mxGeometry x="229" y="540" width="100" height="370" as="geometry" />
        </mxCell>
        <mxCell id="nOl9snunENzTfeE-55hJ-49" value="sortData()" style="html=1;verticalAlign=bottom;endArrow=block;rounded=0;edgeStyle=orthogonalEdgeStyle;" edge="1" parent="nOl9snunENzTfeE-55hJ-12">
          <mxGeometry width="80" relative="1" as="geometry">
            <mxPoint x="-83.5" y="364.40999999999997" as="sourcePoint" />
            <mxPoint x="210.99999999999955" y="364.4688235294117" as="targetPoint" />
            <Array as="points">
              <mxPoint x="126.5" y="364.40999999999997" />
              <mxPoint x="126.5" y="364.40999999999997" />
            </Array>
          </mxGeometry>
        </mxCell>
        <mxCell id="n4EBVzArFng8qN9Nk12o-1" value="SortContext" style="swimlane;fontStyle=1;align=center;verticalAlign=top;childLayout=stackLayout;horizontal=1;startSize=26;horizontalStack=0;resizeParent=1;resizeParentMax=0;resizeLast=0;collapsible=1;marginBottom=0;" parent="1" vertex="1">
          <mxGeometry x="30" y="80" width="200" height="150" as="geometry" />
        </mxCell>
        <mxCell id="n4EBVzArFng8qN9Nk12o-2" value="&#xa;+ inventory&#xa;&#xa;&#xa;" style="text;strokeColor=none;fillColor=none;align=left;verticalAlign=top;spacingLeft=4;spacingRight=4;overflow=hidden;rotatable=0;points=[[0,0.5],[1,0.5]];portConstraint=eastwest;" parent="n4EBVzArFng8qN9Nk12o-1" vertex="1">
          <mxGeometry y="26" width="200" height="64" as="geometry" />
        </mxCell>
        <mxCell id="n4EBVzArFng8qN9Nk12o-3" value="" style="line;strokeWidth=1;fillColor=none;align=left;verticalAlign=middle;spacingTop=-1;spacingLeft=3;spacingRight=3;rotatable=0;labelPosition=right;points=[];portConstraint=eastwest;" parent="n4EBVzArFng8qN9Nk12o-1" vertex="1">
          <mxGeometry y="90" width="200" height="10" as="geometry" />
        </mxCell>
        <mxCell id="n4EBVzArFng8qN9Nk12o-4" value="+ setSort(String): void&#xa;+ getStrategy(): String&#xa;+sortData(strategy): list&#xa;" style="text;strokeColor=none;fillColor=none;align=left;verticalAlign=top;spacingLeft=4;spacingRight=4;overflow=hidden;rotatable=0;points=[[0,0.5],[1,0.5]];portConstraint=eastwest;" parent="n4EBVzArFng8qN9Nk12o-1" vertex="1">
          <mxGeometry y="100" width="200" height="50" as="geometry" />
        </mxCell>
        <mxCell id="n4EBVzArFng8qN9Nk12o-10" style="edgeStyle=orthogonalEdgeStyle;rounded=0;orthogonalLoop=1;jettySize=auto;html=1;exitX=0;exitY=0.5;exitDx=0;exitDy=0;entryX=1;entryY=0.5;entryDx=0;entryDy=0;endArrow=diamondThin;endFill=0;strokeWidth=1;endSize=20;" parent="1" source="n4EBVzArFng8qN9Nk12o-6" target="n4EBVzArFng8qN9Nk12o-2" edge="1">
          <mxGeometry relative="1" as="geometry" />
        </mxCell>
        <mxCell id="n4EBVzArFng8qN9Nk12o-6" value="Sort" style="swimlane;fontStyle=1;align=center;verticalAlign=top;childLayout=stackLayout;horizontal=1;startSize=26;horizontalStack=0;resizeParent=1;resizeParentMax=0;resizeLast=0;collapsible=1;marginBottom=0;" parent="1" vertex="1">
          <mxGeometry x="540" y="108" width="160" height="60" as="geometry" />
        </mxCell>
        <mxCell id="n4EBVzArFng8qN9Nk12o-8" value="" style="line;strokeWidth=1;fillColor=none;align=left;verticalAlign=middle;spacingTop=-1;spacingLeft=3;spacingRight=3;rotatable=0;labelPosition=right;points=[];portConstraint=eastwest;" parent="n4EBVzArFng8qN9Nk12o-6" vertex="1">
          <mxGeometry y="26" width="160" height="8" as="geometry" />
        </mxCell>
        <mxCell id="n4EBVzArFng8qN9Nk12o-9" value="+ sortData(string): void" style="text;strokeColor=none;fillColor=none;align=left;verticalAlign=top;spacingLeft=4;spacingRight=4;overflow=hidden;rotatable=0;points=[[0,0.5],[1,0.5]];portConstraint=eastwest;" parent="n4EBVzArFng8qN9Nk12o-6" vertex="1">
          <mxGeometry y="34" width="160" height="26" as="geometry" />
        </mxCell>
        <mxCell id="n4EBVzArFng8qN9Nk12o-21" style="edgeStyle=orthogonalEdgeStyle;rounded=0;orthogonalLoop=1;jettySize=auto;html=1;exitX=0.5;exitY=0;exitDx=0;exitDy=0;entryX=0.488;entryY=1.038;entryDx=0;entryDy=0;entryPerimeter=0;endArrow=block;endFill=0;endSize=20;strokeWidth=1;dashed=1;" parent="1" source="n4EBVzArFng8qN9Nk12o-11" target="n4EBVzArFng8qN9Nk12o-9" edge="1">
          <mxGeometry relative="1" as="geometry" />
        </mxCell>
        <mxCell id="n4EBVzArFng8qN9Nk12o-11" value="Quicksort" style="swimlane;fontStyle=0;childLayout=stackLayout;horizontal=1;startSize=26;fillColor=none;horizontalStack=0;resizeParent=1;resizeParentMax=0;resizeLast=0;collapsible=1;marginBottom=0;" parent="1" vertex="1">
          <mxGeometry x="285" y="280" width="165" height="52" as="geometry" />
        </mxCell>
        <mxCell id="n4EBVzArFng8qN9Nk12o-12" value="+ void sortData(string): " style="text;strokeColor=none;fillColor=none;align=left;verticalAlign=top;spacingLeft=4;spacingRight=4;overflow=hidden;rotatable=0;points=[[0,0.5],[1,0.5]];portConstraint=eastwest;" parent="n4EBVzArFng8qN9Nk12o-11" vertex="1">
          <mxGeometry y="26" width="165" height="26" as="geometry" />
        </mxCell>
        <mxCell id="n4EBVzArFng8qN9Nk12o-23" style="edgeStyle=orthogonalEdgeStyle;rounded=0;orthogonalLoop=1;jettySize=auto;html=1;exitX=0.5;exitY=0;exitDx=0;exitDy=0;dashed=1;endArrow=none;endFill=0;endSize=20;strokeWidth=1;" parent="1" source="n4EBVzArFng8qN9Nk12o-15" edge="1">
          <mxGeometry relative="1" as="geometry">
            <mxPoint x="578" y="230" as="targetPoint" />
          </mxGeometry>
        </mxCell>
        <mxCell id="n4EBVzArFng8qN9Nk12o-15" value="Mergesort" style="swimlane;fontStyle=0;childLayout=stackLayout;horizontal=1;startSize=26;fillColor=none;horizontalStack=0;resizeParent=1;resizeParentMax=0;resizeLast=0;collapsible=1;marginBottom=0;" parent="1" vertex="1">
          <mxGeometry x="495" y="280" width="165" height="52" as="geometry" />
        </mxCell>
        <mxCell id="n4EBVzArFng8qN9Nk12o-16" value="+ void sortData(string):" style="text;strokeColor=none;fillColor=none;align=left;verticalAlign=top;spacingLeft=4;spacingRight=4;overflow=hidden;rotatable=0;points=[[0,0.5],[1,0.5]];portConstraint=eastwest;" parent="n4EBVzArFng8qN9Nk12o-15" vertex="1">
          <mxGeometry y="26" width="165" height="26" as="geometry" />
        </mxCell>
        <mxCell id="n4EBVzArFng8qN9Nk12o-27" style="edgeStyle=orthogonalEdgeStyle;rounded=0;orthogonalLoop=1;jettySize=auto;html=1;exitX=0.5;exitY=0;exitDx=0;exitDy=0;dashed=1;endArrow=none;endFill=0;endSize=20;strokeWidth=1;" parent="1" edge="1">
          <mxGeometry relative="1" as="geometry">
            <mxPoint x="790" y="229" as="targetPoint" />
            <mxPoint x="1002.5" y="279" as="sourcePoint" />
            <Array as="points">
              <mxPoint x="1003" y="229" />
            </Array>
          </mxGeometry>
        </mxCell>
        <mxCell id="n4EBVzArFng8qN9Nk12o-17" value="Insertionsort" style="swimlane;fontStyle=0;childLayout=stackLayout;horizontal=1;startSize=26;fillColor=none;horizontalStack=0;resizeParent=1;resizeParentMax=0;resizeLast=0;collapsible=1;marginBottom=0;" parent="1" vertex="1">
          <mxGeometry x="920" y="280" width="165" height="52" as="geometry" />
        </mxCell>
        <mxCell id="n4EBVzArFng8qN9Nk12o-18" value="+ void sortData(string):" style="text;strokeColor=none;fillColor=none;align=left;verticalAlign=top;spacingLeft=4;spacingRight=4;overflow=hidden;rotatable=0;points=[[0,0.5],[1,0.5]];portConstraint=eastwest;" parent="n4EBVzArFng8qN9Nk12o-17" vertex="1">
          <mxGeometry y="26" width="165" height="26" as="geometry" />
        </mxCell>
        <mxCell id="n4EBVzArFng8qN9Nk12o-24" style="edgeStyle=orthogonalEdgeStyle;rounded=0;orthogonalLoop=1;jettySize=auto;html=1;exitX=0.5;exitY=0;exitDx=0;exitDy=0;dashed=1;endArrow=none;endFill=0;endSize=20;strokeWidth=1;" parent="1" edge="1">
          <mxGeometry relative="1" as="geometry">
            <mxPoint x="620" y="229" as="targetPoint" />
            <mxPoint x="792.5" y="279" as="sourcePoint" />
            <Array as="points">
              <mxPoint x="793" y="229" />
            </Array>
          </mxGeometry>
        </mxCell>
        <mxCell id="n4EBVzArFng8qN9Nk12o-19" value="Bubblesort" style="swimlane;fontStyle=0;childLayout=stackLayout;horizontal=1;startSize=26;fillColor=none;horizontalStack=0;resizeParent=1;resizeParentMax=0;resizeLast=0;collapsible=1;marginBottom=0;" parent="1" vertex="1">
          <mxGeometry x="710" y="280" width="165" height="52" as="geometry" />
        </mxCell>
        <mxCell id="n4EBVzArFng8qN9Nk12o-20" value="+ void sortData(string):" style="text;strokeColor=none;fillColor=none;align=left;verticalAlign=top;spacingLeft=4;spacingRight=4;overflow=hidden;rotatable=0;points=[[0,0.5],[1,0.5]];portConstraint=eastwest;" parent="n4EBVzArFng8qN9Nk12o-19" vertex="1">
          <mxGeometry y="26" width="165" height="26" as="geometry" />
        </mxCell>
        <mxCell id="nOl9snunENzTfeE-55hJ-1" value="Customer" style="swimlane;fontStyle=1;align=center;verticalAlign=top;childLayout=stackLayout;horizontal=1;startSize=26;horizontalStack=0;resizeParent=1;resizeParentMax=0;resizeLast=0;collapsible=1;marginBottom=0;" vertex="1" parent="1">
          <mxGeometry x="335" y="-30" width="160" height="86" as="geometry" />
        </mxCell>
        <mxCell id="nOl9snunENzTfeE-55hJ-2" value="+ inventory: string" style="text;strokeColor=none;fillColor=none;align=left;verticalAlign=top;spacingLeft=4;spacingRight=4;overflow=hidden;rotatable=0;points=[[0,0.5],[1,0.5]];portConstraint=eastwest;" vertex="1" parent="nOl9snunENzTfeE-55hJ-1">
          <mxGeometry y="26" width="160" height="26" as="geometry" />
        </mxCell>
        <mxCell id="nOl9snunENzTfeE-55hJ-3" value="" style="line;strokeWidth=1;fillColor=none;align=left;verticalAlign=middle;spacingTop=-1;spacingLeft=3;spacingRight=3;rotatable=0;labelPosition=right;points=[];portConstraint=eastwest;" vertex="1" parent="nOl9snunENzTfeE-55hJ-1">
          <mxGeometry y="52" width="160" height="8" as="geometry" />
        </mxCell>
        <mxCell id="nOl9snunENzTfeE-55hJ-4" value="+ getInventory(): string" style="text;strokeColor=none;fillColor=none;align=left;verticalAlign=top;spacingLeft=4;spacingRight=4;overflow=hidden;rotatable=0;points=[[0,0.5],[1,0.5]];portConstraint=eastwest;" vertex="1" parent="nOl9snunENzTfeE-55hJ-1">
          <mxGeometry y="60" width="160" height="26" as="geometry" />
        </mxCell>
        <mxCell id="nOl9snunENzTfeE-55hJ-13" value="Main" style="shape=umlLifeline;perimeter=lifelinePerimeter;whiteSpace=wrap;html=1;container=1;collapsible=0;recursiveResize=0;outlineConnect=0;align=center;verticalAlign=top;" vertex="1" parent="1">
          <mxGeometry x="90" y="540" width="100" height="700" as="geometry" />
        </mxCell>
        <mxCell id="nOl9snunENzTfeE-55hJ-14" value="" style="html=1;points=[];perimeter=orthogonalPerimeter;align=center;verticalAlign=top;" vertex="1" parent="nOl9snunENzTfeE-55hJ-13">
          <mxGeometry x="45" y="40" width="10" height="560" as="geometry" />
        </mxCell>
        <mxCell id="nOl9snunENzTfeE-55hJ-27" value="sortData()" style="html=1;verticalAlign=bottom;endArrow=block;rounded=0;edgeStyle=orthogonalEdgeStyle;" edge="1" parent="nOl9snunENzTfeE-55hJ-13" target="nOl9snunENzTfeE-55hJ-26">
          <mxGeometry width="80" relative="1" as="geometry">
            <mxPoint x="60" y="230" as="sourcePoint" />
            <mxPoint x="140" y="230" as="targetPoint" />
            <Array as="points">
              <mxPoint x="270" y="230" />
              <mxPoint x="270" y="230" />
            </Array>
          </mxGeometry>
        </mxCell>
        <mxCell id="nOl9snunENzTfeE-55hJ-17" value="getInventory" style="html=1;verticalAlign=bottom;endArrow=block;rounded=0;edgeStyle=orthogonalEdgeStyle;" edge="1" parent="1">
          <mxGeometry width="80" relative="1" as="geometry">
            <mxPoint x="145" y="645" as="sourcePoint" />
            <mxPoint x="270" y="645" as="targetPoint" />
            <Array as="points">
              <mxPoint x="145" y="645" />
              <mxPoint x="210" y="645" />
            </Array>
          </mxGeometry>
        </mxCell>
        <mxCell id="nOl9snunENzTfeE-55hJ-19" value="Customer" style="shape=umlActor;verticalLabelPosition=bottom;verticalAlign=top;html=1;" vertex="1" parent="1">
          <mxGeometry x="-10" y="490" width="30" height="60" as="geometry" />
        </mxCell>
        <mxCell id="nOl9snunENzTfeE-55hJ-21" value="" style="html=1;points=[];perimeter=orthogonalPerimeter;align=center;verticalAlign=top;" vertex="1" parent="1">
          <mxGeometry y="580" width="10" height="570" as="geometry" />
        </mxCell>
        <mxCell id="nOl9snunENzTfeE-55hJ-22" value="Ask for user input" style="html=1;verticalAlign=bottom;endArrow=block;rounded=0;edgeStyle=orthogonalEdgeStyle;" edge="1" parent="1">
          <mxGeometry x="0.0201" width="80" relative="1" as="geometry">
            <mxPoint x="270" y="680" as="sourcePoint" />
            <mxPoint x="14" y="681" as="targetPoint" />
            <Array as="points">
              <mxPoint x="270" y="681" />
              <mxPoint x="14" y="681" />
            </Array>
            <mxPoint as="offset" />
          </mxGeometry>
        </mxCell>
        <mxCell id="nOl9snunENzTfeE-55hJ-23" value="user input" style="html=1;verticalAlign=bottom;endArrow=open;dashed=1;endSize=8;rounded=0;edgeStyle=orthogonalEdgeStyle;" edge="1" parent="1">
          <mxGeometry relative="1" as="geometry">
            <mxPoint x="11" y="718" as="sourcePoint" />
            <mxPoint x="270" y="718" as="targetPoint" />
            <Array as="points">
              <mxPoint x="11" y="718" />
            </Array>
          </mxGeometry>
        </mxCell>
        <mxCell id="nOl9snunENzTfeE-55hJ-25" value="inventory" style="html=1;verticalAlign=bottom;endArrow=open;dashed=1;endSize=8;rounded=0;edgeStyle=orthogonalEdgeStyle;" edge="1" parent="1">
          <mxGeometry relative="1" as="geometry">
            <mxPoint x="273" y="740" as="sourcePoint" />
            <mxPoint x="149" y="740" as="targetPoint" />
            <Array as="points">
              <mxPoint x="273" y="740" />
              <mxPoint x="149" y="740" />
            </Array>
          </mxGeometry>
        </mxCell>
        <mxCell id="nOl9snunENzTfeE-55hJ-26" value="SortContext" style="shape=umlLifeline;perimeter=lifelinePerimeter;whiteSpace=wrap;html=1;container=1;collapsible=0;recursiveResize=0;outlineConnect=0;align=center;verticalAlign=top;" vertex="1" parent="1">
          <mxGeometry x="395" y="540" width="100" height="680" as="geometry" />
        </mxCell>
        <mxCell id="nOl9snunENzTfeE-55hJ-28" value="" style="html=1;points=[];perimeter=orthogonalPerimeter;align=center;verticalAlign=top;" vertex="1" parent="nOl9snunENzTfeE-55hJ-26">
          <mxGeometry x="45" y="230" width="10" height="380" as="geometry" />
        </mxCell>
        <mxCell id="nOl9snunENzTfeE-55hJ-40" value="inventory" style="html=1;verticalAlign=bottom;endArrow=open;dashed=1;endSize=8;rounded=0;edgeStyle=orthogonalEdgeStyle;" edge="1" parent="nOl9snunENzTfeE-55hJ-26">
          <mxGeometry relative="1" as="geometry">
            <mxPoint x="225" y="290" as="sourcePoint" />
            <mxPoint x="65" y="290" as="targetPoint" />
          </mxGeometry>
        </mxCell>
        <mxCell id="nOl9snunENzTfeE-55hJ-29" value="Quicksort" style="shape=umlLifeline;perimeter=lifelinePerimeter;whiteSpace=wrap;html=1;container=1;collapsible=0;recursiveResize=0;outlineConnect=0;align=center;verticalAlign=top;" vertex="1" parent="1">
          <mxGeometry x="1080" y="540" width="100" height="670" as="geometry" />
        </mxCell>
        <mxCell id="nOl9snunENzTfeE-55hJ-38" value="" style="html=1;points=[];perimeter=orthogonalPerimeter;align=center;verticalAlign=top;" vertex="1" parent="nOl9snunENzTfeE-55hJ-29">
          <mxGeometry x="45" y="570" width="10" height="30" as="geometry" />
        </mxCell>
        <mxCell id="nOl9snunENzTfeE-55hJ-30" value="Bubblesort" style="shape=umlLifeline;perimeter=lifelinePerimeter;whiteSpace=wrap;html=1;container=1;collapsible=0;recursiveResize=0;outlineConnect=0;align=center;verticalAlign=top;" vertex="1" parent="1">
          <mxGeometry x="580" y="540" width="100" height="670" as="geometry" />
        </mxCell>
        <mxCell id="nOl9snunENzTfeE-55hJ-35" value="" style="html=1;points=[];perimeter=orthogonalPerimeter;align=center;verticalAlign=top;" vertex="1" parent="nOl9snunENzTfeE-55hJ-30">
          <mxGeometry x="45" y="260" width="10" height="40" as="geometry" />
        </mxCell>
        <mxCell id="nOl9snunENzTfeE-55hJ-39" value="sortData()" style="html=1;verticalAlign=bottom;endArrow=block;rounded=0;edgeStyle=orthogonalEdgeStyle;" edge="1" parent="nOl9snunENzTfeE-55hJ-30" target="nOl9snunENzTfeE-55hJ-30">
          <mxGeometry width="80" relative="1" as="geometry">
            <mxPoint x="-132" y="258.82000000000005" as="sourcePoint" />
            <mxPoint x="40" y="259" as="targetPoint" />
            <Array as="points">
              <mxPoint y="259" />
              <mxPoint y="259" />
            </Array>
          </mxGeometry>
        </mxCell>
        <mxCell id="nOl9snunENzTfeE-55hJ-32" value="Mergesort" style="shape=umlLifeline;perimeter=lifelinePerimeter;whiteSpace=wrap;html=1;container=1;collapsible=0;recursiveResize=0;outlineConnect=0;align=center;verticalAlign=top;" vertex="1" parent="1">
          <mxGeometry x="900" y="540" width="115" height="650" as="geometry" />
        </mxCell>
        <mxCell id="nOl9snunENzTfeE-55hJ-37" value="" style="html=1;points=[];perimeter=orthogonalPerimeter;align=center;verticalAlign=top;" vertex="1" parent="nOl9snunENzTfeE-55hJ-32">
          <mxGeometry x="52.5" y="470" width="10" height="40" as="geometry" />
        </mxCell>
        <mxCell id="nOl9snunENzTfeE-55hJ-31" value="Insertionsort" style="shape=umlLifeline;perimeter=lifelinePerimeter;whiteSpace=wrap;html=1;container=1;collapsible=0;recursiveResize=0;outlineConnect=0;align=center;verticalAlign=top;" vertex="1" parent="1">
          <mxGeometry x="742.5" y="540" width="100" height="670" as="geometry" />
        </mxCell>
        <mxCell id="nOl9snunENzTfeE-55hJ-36" value="" style="html=1;points=[];perimeter=orthogonalPerimeter;align=center;verticalAlign=top;" vertex="1" parent="nOl9snunENzTfeE-55hJ-31">
          <mxGeometry x="45" y="380" width="10" height="40" as="geometry" />
        </mxCell>
        <mxCell id="nOl9snunENzTfeE-55hJ-43" value="return" style="html=1;verticalAlign=bottom;endArrow=open;dashed=1;endSize=8;rounded=0;edgeStyle=orthogonalEdgeStyle;" edge="1" parent="1">
          <mxGeometry relative="1" as="geometry">
            <mxPoint x="440" y="830" as="sourcePoint" />
            <mxPoint x="150" y="830" as="targetPoint" />
            <Array as="points">
              <mxPoint x="230" y="830" />
              <mxPoint x="230" y="830" />
            </Array>
          </mxGeometry>
        </mxCell>
        <mxCell id="nOl9snunENzTfeE-55hJ-45" value="return" style="html=1;verticalAlign=bottom;endArrow=open;dashed=1;endSize=8;rounded=0;edgeStyle=orthogonalEdgeStyle;" edge="1" parent="1">
          <mxGeometry relative="1" as="geometry">
            <mxPoint x="130" y="830" as="sourcePoint" />
            <mxPoint x="10" y="830" as="targetPoint" />
            <Array as="points">
              <mxPoint x="20" y="830" />
              <mxPoint x="20" y="830" />
            </Array>
          </mxGeometry>
        </mxCell>
        <mxCell id="nOl9snunENzTfeE-55hJ-50" value="sortData()" style="html=1;verticalAlign=bottom;endArrow=block;rounded=0;edgeStyle=orthogonalEdgeStyle;" edge="1" parent="1">
          <mxGeometry width="80" relative="1" as="geometry">
            <mxPoint x="140" y="1000" as="sourcePoint" />
            <mxPoint x="434.49999999999955" y="1000.0588235294117" as="targetPoint" />
            <Array as="points">
              <mxPoint x="350" y="1000" />
              <mxPoint x="350" y="1000" />
            </Array>
          </mxGeometry>
        </mxCell>
        <mxCell id="nOl9snunENzTfeE-55hJ-51" value="sortData()" style="html=1;verticalAlign=bottom;endArrow=block;rounded=0;edgeStyle=orthogonalEdgeStyle;" edge="1" parent="1">
          <mxGeometry width="80" relative="1" as="geometry">
            <mxPoint x="150" y="1100" as="sourcePoint" />
            <mxPoint x="444.49999999999955" y="1100.0588235294117" as="targetPoint" />
            <Array as="points">
              <mxPoint x="360" y="1100" />
              <mxPoint x="360" y="1100" />
            </Array>
          </mxGeometry>
        </mxCell>
        <mxCell id="nOl9snunENzTfeE-55hJ-52" value="sortData()" style="html=1;verticalAlign=bottom;endArrow=block;rounded=0;edgeStyle=orthogonalEdgeStyle;" edge="1" parent="1" target="nOl9snunENzTfeE-55hJ-31">
          <mxGeometry width="80" relative="1" as="geometry">
            <mxPoint x="450" y="920.0600000000002" as="sourcePoint" />
            <mxPoint x="631.4999999999995" y="920.0600000000002" as="targetPoint" />
            <Array as="points">
              <mxPoint x="700" y="920" />
              <mxPoint x="700" y="920" />
            </Array>
          </mxGeometry>
        </mxCell>
        <mxCell id="nOl9snunENzTfeE-55hJ-53" value="sortData()" style="html=1;verticalAlign=bottom;endArrow=block;rounded=0;edgeStyle=orthogonalEdgeStyle;" edge="1" parent="1" target="nOl9snunENzTfeE-55hJ-32">
          <mxGeometry width="80" relative="1" as="geometry">
            <mxPoint x="450" y="1010.0600000000002" as="sourcePoint" />
            <mxPoint x="631.4999999999995" y="1010.0600000000002" as="targetPoint" />
            <Array as="points">
              <mxPoint x="810" y="1010" />
              <mxPoint x="810" y="1010" />
            </Array>
          </mxGeometry>
        </mxCell>
        <mxCell id="nOl9snunENzTfeE-55hJ-54" value="sortData()" style="html=1;verticalAlign=bottom;endArrow=block;rounded=0;edgeStyle=orthogonalEdgeStyle;" edge="1" parent="1" target="nOl9snunENzTfeE-55hJ-29">
          <mxGeometry width="80" relative="1" as="geometry">
            <mxPoint x="450" y="1120.0600000000002" as="sourcePoint" />
            <mxPoint x="631.4999999999995" y="1120.0600000000002" as="targetPoint" />
            <Array as="points">
              <mxPoint x="920" y="1120" />
              <mxPoint x="920" y="1120" />
            </Array>
          </mxGeometry>
        </mxCell>
        <mxCell id="nOl9snunENzTfeE-55hJ-55" value="inventory" style="html=1;verticalAlign=bottom;endArrow=open;dashed=1;endSize=8;rounded=0;edgeStyle=orthogonalEdgeStyle;" edge="1" parent="1" source="nOl9snunENzTfeE-55hJ-31">
          <mxGeometry relative="1" as="geometry">
            <mxPoint x="610" y="950" as="sourcePoint" />
            <mxPoint x="450" y="950" as="targetPoint" />
            <Array as="points">
              <mxPoint x="690" y="950" />
              <mxPoint x="690" y="950" />
            </Array>
          </mxGeometry>
        </mxCell>
        <mxCell id="nOl9snunENzTfeE-55hJ-56" value="inventory" style="html=1;verticalAlign=bottom;endArrow=open;dashed=1;endSize=8;rounded=0;edgeStyle=orthogonalEdgeStyle;" edge="1" parent="1" source="nOl9snunENzTfeE-55hJ-32">
          <mxGeometry relative="1" as="geometry">
            <mxPoint x="610" y="1040" as="sourcePoint" />
            <mxPoint x="450" y="1040" as="targetPoint" />
            <Array as="points">
              <mxPoint x="820" y="1040" />
              <mxPoint x="820" y="1040" />
            </Array>
          </mxGeometry>
        </mxCell>
        <mxCell id="nOl9snunENzTfeE-55hJ-57" value="inventory" style="html=1;verticalAlign=bottom;endArrow=open;dashed=1;endSize=8;rounded=0;edgeStyle=orthogonalEdgeStyle;" edge="1" parent="1" source="nOl9snunENzTfeE-55hJ-29">
          <mxGeometry relative="1" as="geometry">
            <mxPoint x="610" y="1140" as="sourcePoint" />
            <mxPoint x="450" y="1140" as="targetPoint" />
            <Array as="points">
              <mxPoint x="960" y="1140" />
              <mxPoint x="960" y="1140" />
            </Array>
          </mxGeometry>
        </mxCell>
        <mxCell id="nOl9snunENzTfeE-55hJ-58" value="return" style="html=1;verticalAlign=bottom;endArrow=open;dashed=1;endSize=8;rounded=0;edgeStyle=orthogonalEdgeStyle;" edge="1" parent="1">
          <mxGeometry relative="1" as="geometry">
            <mxPoint x="440" y="950" as="sourcePoint" />
            <mxPoint x="150" y="950" as="targetPoint" />
            <Array as="points">
              <mxPoint x="230" y="950" />
              <mxPoint x="230" y="950" />
            </Array>
          </mxGeometry>
        </mxCell>
        <mxCell id="nOl9snunENzTfeE-55hJ-59" value="return" style="html=1;verticalAlign=bottom;endArrow=open;dashed=1;endSize=8;rounded=0;edgeStyle=orthogonalEdgeStyle;" edge="1" parent="1">
          <mxGeometry relative="1" as="geometry">
            <mxPoint x="130" y="950" as="sourcePoint" />
            <mxPoint x="10" y="950" as="targetPoint" />
            <Array as="points">
              <mxPoint x="20" y="950" />
              <mxPoint x="20" y="950" />
            </Array>
          </mxGeometry>
        </mxCell>
        <mxCell id="nOl9snunENzTfeE-55hJ-60" value="return" style="html=1;verticalAlign=bottom;endArrow=open;dashed=1;endSize=8;rounded=0;edgeStyle=orthogonalEdgeStyle;" edge="1" parent="1">
          <mxGeometry relative="1" as="geometry">
            <mxPoint x="440" y="1040" as="sourcePoint" />
            <mxPoint x="150" y="1040" as="targetPoint" />
            <Array as="points">
              <mxPoint x="230" y="1040" />
              <mxPoint x="230" y="1040" />
            </Array>
          </mxGeometry>
        </mxCell>
        <mxCell id="nOl9snunENzTfeE-55hJ-61" value="return" style="html=1;verticalAlign=bottom;endArrow=open;dashed=1;endSize=8;rounded=0;edgeStyle=orthogonalEdgeStyle;" edge="1" parent="1">
          <mxGeometry relative="1" as="geometry">
            <mxPoint x="130" y="1040" as="sourcePoint" />
            <mxPoint x="10" y="1040" as="targetPoint" />
            <Array as="points">
              <mxPoint x="20" y="1040" />
              <mxPoint x="20" y="1040" />
            </Array>
          </mxGeometry>
        </mxCell>
        <mxCell id="nOl9snunENzTfeE-55hJ-62" value="return" style="html=1;verticalAlign=bottom;endArrow=open;dashed=1;endSize=8;rounded=0;edgeStyle=orthogonalEdgeStyle;" edge="1" parent="1">
          <mxGeometry relative="1" as="geometry">
            <mxPoint x="440" y="1140" as="sourcePoint" />
            <mxPoint x="150" y="1140" as="targetPoint" />
            <Array as="points">
              <mxPoint x="230" y="1140" />
              <mxPoint x="230" y="1140" />
            </Array>
          </mxGeometry>
        </mxCell>
        <mxCell id="nOl9snunENzTfeE-55hJ-63" value="return" style="html=1;verticalAlign=bottom;endArrow=open;dashed=1;endSize=8;rounded=0;edgeStyle=orthogonalEdgeStyle;" edge="1" parent="1">
          <mxGeometry relative="1" as="geometry">
            <mxPoint x="130" y="1140" as="sourcePoint" />
            <mxPoint x="10" y="1140" as="targetPoint" />
            <Array as="points">
              <mxPoint x="20" y="1140" />
              <mxPoint x="20" y="1140" />
            </Array>
          </mxGeometry>
        </mxCell>
      </root>
    </mxGraphModel>
  </diagram>
  <diagram id="WfjeEx2tkpJUp6pNoMjD" name="Page-2">
    <mxGraphModel dx="782" dy="420" grid="1" gridSize="10" guides="1" tooltips="1" connect="1" arrows="1" fold="1" page="1" pageScale="1" pageWidth="850" pageHeight="1100" math="0" shadow="0">
      <root>
        <mxCell id="mZHpoQuEM-g_tLmblByD-0" />
        <mxCell id="mZHpoQuEM-g_tLmblByD-1" parent="mZHpoQuEM-g_tLmblByD-0" />
        <mxCell id="mZHpoQuEM-g_tLmblByD-2" value="" style="html=1;points=[];perimeter=orthogonalPerimeter;" vertex="1" parent="mZHpoQuEM-g_tLmblByD-1">
          <mxGeometry x="120" y="80" width="10" height="340" as="geometry" />
        </mxCell>
      </root>
    </mxGraphModel>
  </diagram>
</mxfile>
